<svg width="825" height="318" viewBox="0 0 825 318" fill="none" xmlns="http://www.w3.org/2000/svg">
<path d="M153.44 120L135.44 64.16H147.76L156.08 90.96L160.48 108.48H160.72L164.96 90.96L173.28 64.16H185.2L167.04 120H153.44ZM205.792 73.52C203.392 73.52 201.632 72.9867 200.512 71.92C199.445 70.8 198.912 69.3867 198.912 67.68V65.92C198.912 64.2134 199.445 62.8267 200.512 61.76C201.632 60.64 203.392 60.08 205.792 60.08C208.192 60.08 209.925 60.64 210.992 61.76C212.112 62.8267 212.672 64.2134 212.672 65.92V67.68C212.672 69.3867 212.112 70.8 210.992 71.92C209.925 72.9867 208.192 73.52 205.792 73.52ZM199.872 78H211.712V120H199.872V78ZM245.002 120.96C240.949 120.96 237.536 120.32 234.762 119.04C231.989 117.707 229.509 115.84 227.322 113.44L234.282 106.4C235.776 108.053 237.429 109.36 239.242 110.32C241.056 111.28 243.109 111.76 245.402 111.76C247.749 111.76 249.376 111.413 250.282 110.72C251.189 109.973 251.642 108.987 251.642 107.76C251.642 105.787 250.229 104.613 247.402 104.24L242.842 103.68C233.402 102.507 228.682 98.1867 228.682 90.72C228.682 88.6934 229.056 86.8534 229.802 85.2C230.602 83.4934 231.696 82.0534 233.082 80.88C234.522 79.6534 236.229 78.72 238.202 78.08C240.229 77.3867 242.496 77.04 245.002 77.04C247.189 77.04 249.109 77.2 250.762 77.52C252.469 77.7867 253.962 78.2134 255.242 78.8C256.576 79.3334 257.776 80.0267 258.842 80.88C259.962 81.68 261.056 82.5867 262.122 83.6L255.322 90.56C253.989 89.2267 252.469 88.1867 250.762 87.44C249.109 86.64 247.402 86.24 245.642 86.24C243.616 86.24 242.176 86.56 241.322 87.2C240.469 87.84 240.042 88.6934 240.042 89.76C240.042 90.88 240.336 91.76 240.922 92.4C241.562 92.9867 242.736 93.4134 244.442 93.68L249.162 94.32C258.389 95.5467 263.002 99.76 263.002 106.96C263.002 108.987 262.576 110.853 261.722 112.56C260.869 114.267 259.642 115.76 258.042 117.04C256.496 118.267 254.602 119.227 252.362 119.92C250.176 120.613 247.722 120.96 245.002 120.96ZM303.875 112.96H303.475C303.101 114.027 302.595 115.04 301.955 116C301.368 116.96 300.595 117.813 299.635 118.56C298.675 119.307 297.528 119.893 296.195 120.32C294.915 120.747 293.421 120.96 291.715 120.96C287.395 120.96 284.115 119.547 281.875 116.72C279.688 113.84 278.595 109.733 278.595 104.4V78H290.435V103.36C290.435 105.92 290.888 107.893 291.795 109.28C292.701 110.667 294.248 111.36 296.435 111.36C297.341 111.36 298.248 111.227 299.155 110.96C300.061 110.693 300.861 110.32 301.555 109.84C302.248 109.307 302.808 108.667 303.235 107.92C303.661 107.173 303.875 106.293 303.875 105.28V78H315.715V120H303.875V112.96ZM365.771 120C363.638 120 361.851 119.333 360.411 118C359.024 116.667 358.144 114.88 357.771 112.64H357.291C356.651 115.36 355.238 117.44 353.051 118.88C350.864 120.267 348.171 120.96 344.971 120.96C340.758 120.96 337.531 119.84 335.291 117.6C333.051 115.36 331.931 112.4 331.931 108.72C331.931 104.293 333.531 101.013 336.731 98.88C339.984 96.6934 344.384 95.6 349.931 95.6H356.571V92.96C356.571 90.9334 356.038 89.3334 354.971 88.16C353.904 86.9334 352.118 86.32 349.611 86.32C347.264 86.32 345.398 86.8267 344.011 87.84C342.624 88.8534 341.478 90 340.571 91.28L333.531 85.04C335.238 82.5334 337.371 80.5867 339.931 79.2C342.544 77.76 346.064 77.04 350.491 77.04C356.464 77.04 360.944 78.3467 363.931 80.96C366.918 83.5734 368.411 87.3867 368.411 92.4V110.8H372.331V120H365.771ZM349.371 112.72C351.344 112.72 353.024 112.293 354.411 111.44C355.851 110.587 356.571 109.2 356.571 107.28V102.32H350.811C346.171 102.32 343.851 103.893 343.851 107.04V108.24C343.851 109.787 344.331 110.933 345.291 111.68C346.251 112.373 347.611 112.72 349.371 112.72ZM400.038 120C395.984 120 392.998 119.013 391.078 117.04C389.211 115.067 388.278 112.213 388.278 108.48V60.8H400.118V110.8H405.398V120H400.038ZM426.417 73.52C424.017 73.52 422.257 72.9867 421.137 71.92C420.07 70.8 419.537 69.3867 419.537 67.68V65.92C419.537 64.2134 420.07 62.8267 421.137 61.76C422.257 60.64 424.017 60.08 426.417 60.08C428.817 60.08 430.55 60.64 431.617 61.76C432.737 62.8267 433.297 64.2134 433.297 65.92V67.68C433.297 69.3867 432.737 70.8 431.617 71.92C430.55 72.9867 428.817 73.52 426.417 73.52ZM420.497 78H432.337V120H420.497V78ZM448.987 120V110.64L469.867 87.2H449.707V78H483.627V87.28L462.667 110.8H484.187V120H448.987ZM531.833 120C529.7 120 527.913 119.333 526.473 118C525.087 116.667 524.207 114.88 523.833 112.64H523.353C522.713 115.36 521.3 117.44 519.113 118.88C516.927 120.267 514.233 120.96 511.033 120.96C506.82 120.96 503.593 119.84 501.353 117.6C499.113 115.36 497.993 112.4 497.993 108.72C497.993 104.293 499.593 101.013 502.793 98.88C506.047 96.6934 510.447 95.6 515.993 95.6H522.633V92.96C522.633 90.9334 522.1 89.3334 521.033 88.16C519.967 86.9334 518.18 86.32 515.673 86.32C513.327 86.32 511.46 86.8267 510.073 87.84C508.687 88.8534 507.54 90 506.633 91.28L499.593 85.04C501.3 82.5334 503.433 80.5867 505.993 79.2C508.607 77.76 512.127 77.04 516.553 77.04C522.527 77.04 527.007 78.3467 529.993 80.96C532.98 83.5734 534.473 87.3867 534.473 92.4V110.8H538.393V120H531.833ZM515.433 112.72C517.407 112.72 519.087 112.293 520.473 111.44C521.913 110.587 522.633 109.2 522.633 107.28V102.32H516.873C512.233 102.32 509.913 103.893 509.913 107.04V108.24C509.913 109.787 510.393 110.933 511.353 111.68C512.313 112.373 513.673 112.72 515.433 112.72ZM568.592 120C564.485 120 561.365 118.96 559.232 116.88C557.152 114.8 556.112 111.76 556.112 107.76V87.2H550.192V78H553.152C554.752 78 555.845 77.6267 556.432 76.88C557.018 76.08 557.312 74.96 557.312 73.52V66.64H567.952V78H576.272V87.2H567.952V110.8H575.632V120H568.592ZM598.417 73.52C596.017 73.52 594.257 72.9867 593.137 71.92C592.07 70.8 591.537 69.3867 591.537 67.68V65.92C591.537 64.2134 592.07 62.8267 593.137 61.76C594.257 60.64 596.017 60.08 598.417 60.08C600.817 60.08 602.55 60.64 603.617 61.76C604.737 62.8267 605.297 64.2134 605.297 65.92V67.68C605.297 69.3867 604.737 70.8 603.617 71.92C602.55 72.9867 600.817 73.52 598.417 73.52ZM592.497 78H604.337V120H592.497V78ZM640.427 120.96C637.334 120.96 634.561 120.453 632.107 119.44C629.707 118.427 627.654 116.96 625.947 115.04C624.294 113.12 623.014 110.8 622.107 108.08C621.201 105.36 620.747 102.32 620.747 98.96C620.747 95.6 621.201 92.56 622.107 89.84C623.014 87.12 624.294 84.8267 625.947 82.96C627.654 81.04 629.707 79.5734 632.107 78.56C634.561 77.5467 637.334 77.04 640.427 77.04C643.521 77.04 646.267 77.5467 648.667 78.56C651.121 79.5734 653.174 81.04 654.827 82.96C656.534 84.8267 657.841 87.12 658.747 89.84C659.654 92.56 660.107 95.6 660.107 98.96C660.107 102.32 659.654 105.36 658.747 108.08C657.841 110.8 656.534 113.12 654.827 115.04C653.174 116.96 651.121 118.427 648.667 119.44C646.267 120.453 643.521 120.96 640.427 120.96ZM640.427 111.6C642.774 111.6 644.587 110.88 645.867 109.44C647.147 108 647.787 105.947 647.787 103.28V94.72C647.787 92.0534 647.147 90 645.867 88.56C644.587 87.12 642.774 86.4 640.427 86.4C638.081 86.4 636.267 87.12 634.987 88.56C633.707 90 633.067 92.0534 633.067 94.72V103.28C633.067 105.947 633.707 108 634.987 109.44C636.267 110.88 638.081 111.6 640.427 111.6ZM676.543 120V78H688.383V85.12H688.863C689.61 82.9334 690.917 81.04 692.783 79.44C694.65 77.84 697.237 77.04 700.543 77.04C704.863 77.04 708.117 78.48 710.303 81.36C712.543 84.24 713.663 88.3467 713.663 93.68V120H701.823V94.64C701.823 91.92 701.397 89.92 700.543 88.64C699.69 87.3067 698.17 86.64 695.983 86.64C695.023 86.64 694.09 86.7734 693.183 87.04C692.277 87.2534 691.45 87.6267 690.703 88.16C690.01 88.6934 689.45 89.36 689.023 90.16C688.597 90.9067 688.383 91.7867 688.383 92.8V120H676.543Z" fill="#FFFC71"/>
<path d="M131.504 210V154.16H157.904C160.517 154.16 162.864 154.613 164.944 155.52C167.024 156.373 168.784 157.573 170.224 159.12C171.717 160.667 172.864 162.56 173.664 164.8C174.464 166.987 174.864 169.387 174.864 172C174.864 174.667 174.464 177.093 173.664 179.28C172.864 181.467 171.717 183.333 170.224 184.88C168.784 186.427 167.024 187.653 164.944 188.56C162.864 189.413 160.517 189.84 157.904 189.84H143.664V210H131.504ZM143.664 179.28H156.464C158.277 179.28 159.69 178.827 160.704 177.92C161.77 176.96 162.304 175.573 162.304 173.76V170.24C162.304 168.427 161.77 167.067 160.704 166.16C159.69 165.2 158.277 164.72 156.464 164.72H143.664V179.28ZM192.004 210V154.16H204.164V199.2H225.444V210H192.004ZM278.154 210L274.154 196.72H255.514L251.514 210H239.194L257.594 154.16H272.634L290.794 210H278.154ZM264.954 165.2H264.554L258.394 186.4H271.194L264.954 165.2ZM314.574 210V188.16L295.454 154.16H309.054L321.054 176.4H321.214L332.734 154.16H345.934L326.814 188.08V210H314.574ZM392.303 201.12H391.903C391.476 203.947 390.036 206.293 387.583 208.16C385.13 210.027 381.796 210.96 377.583 210.96C374.383 210.96 371.396 210.347 368.623 209.12C365.85 207.893 363.423 206.08 361.343 203.68C359.263 201.28 357.636 198.293 356.463 194.72C355.29 191.147 354.703 187.013 354.703 182.32C354.703 177.627 355.316 173.467 356.543 169.84C357.77 166.213 359.476 163.173 361.663 160.72C363.903 158.267 366.57 156.4 369.663 155.12C372.756 153.84 376.196 153.2 379.983 153.2C384.996 153.2 389.316 154.293 392.943 156.48C396.57 158.613 399.423 161.84 401.503 166.16L391.583 171.84C390.73 169.653 389.396 167.813 387.583 166.32C385.77 164.773 383.236 164 379.983 164C376.196 164 373.183 165.093 370.943 167.28C368.703 169.467 367.583 172.907 367.583 177.6V186.56C367.583 191.2 368.703 194.64 370.943 196.88C373.183 199.067 376.196 200.16 379.983 200.16C381.476 200.16 382.89 200 384.223 199.68C385.556 199.307 386.73 198.773 387.743 198.08C388.756 197.333 389.53 196.453 390.063 195.44C390.65 194.427 390.943 193.227 390.943 191.84V189.04H380.543V178.88H402.543V210H392.303V201.12ZM434.523 210H422.363V154.16H448.843C451.403 154.16 453.723 154.587 455.803 155.44C457.883 156.293 459.643 157.52 461.083 159.12C462.576 160.667 463.723 162.533 464.523 164.72C465.323 166.907 465.723 169.333 465.723 172C465.723 175.787 464.87 179.093 463.163 181.92C461.51 184.747 458.976 186.8 455.563 188.08L466.523 210H453.003L443.243 189.52H434.523V210ZM447.323 179.28C449.136 179.28 450.55 178.827 451.563 177.92C452.63 176.96 453.163 175.573 453.163 173.76V170.24C453.163 168.427 452.63 167.067 451.563 166.16C450.55 165.2 449.136 164.72 447.323 164.72H434.523V179.28H447.323ZM505.888 210.96C502.208 210.96 498.848 210.347 495.808 209.12C492.768 207.893 490.181 206.08 488.048 203.68C485.915 201.227 484.261 198.213 483.088 194.64C481.915 191.013 481.328 186.827 481.328 182.08C481.328 177.333 481.915 173.173 483.088 169.6C484.261 165.973 485.915 162.96 488.048 160.56C490.181 158.107 492.768 156.267 495.808 155.04C498.848 153.813 502.208 153.2 505.888 153.2C509.568 153.2 512.928 153.813 515.968 155.04C519.008 156.267 521.595 158.107 523.728 160.56C525.861 162.96 527.515 165.973 528.688 169.6C529.861 173.173 530.448 177.333 530.448 182.08C530.448 186.827 529.861 191.013 528.688 194.64C527.515 198.213 525.861 201.227 523.728 203.68C521.595 206.08 519.008 207.893 515.968 209.12C512.928 210.347 509.568 210.96 505.888 210.96ZM505.888 200.16C509.568 200.16 512.421 198.96 514.448 196.56C516.528 194.16 517.568 190.72 517.568 186.24V177.92C517.568 173.44 516.528 170 514.448 167.6C512.421 165.2 509.568 164 505.888 164C502.208 164 499.328 165.2 497.248 167.6C495.221 170 494.208 173.44 494.208 177.92V186.24C494.208 190.72 495.221 194.16 497.248 196.56C499.328 198.96 502.208 200.16 505.888 200.16ZM560.118 154.16V188.4C560.118 192.347 560.891 195.307 562.438 197.28C563.984 199.2 566.571 200.16 570.198 200.16C573.824 200.16 576.411 199.2 577.958 197.28C579.504 195.307 580.278 192.347 580.278 188.4V154.16H592.118V187.12C592.118 191.227 591.718 194.8 590.918 197.84C590.171 200.827 588.918 203.307 587.158 205.28C585.398 207.2 583.131 208.64 580.358 209.6C577.584 210.507 574.198 210.96 570.198 210.96C566.198 210.96 562.811 210.507 560.038 209.6C557.264 208.64 554.998 207.2 553.238 205.28C551.478 203.307 550.198 200.827 549.398 197.84C548.651 194.8 548.278 191.227 548.278 187.12V154.16H560.118ZM629.184 183.6L623.824 172.4H623.584V210H612.144V154.16H625.424L640.704 180.56L646.064 191.76H646.304V154.16H657.744V210H644.464L629.184 183.6ZM678.035 154.16H699.075C702.755 154.16 706.115 154.747 709.155 155.92C712.195 157.093 714.782 158.853 716.915 161.2C719.048 163.493 720.702 166.4 721.875 169.92C723.048 173.387 723.635 177.44 723.635 182.08C723.635 186.72 723.048 190.8 721.875 194.32C720.702 197.787 719.048 200.693 716.915 203.04C714.782 205.333 712.195 207.067 709.155 208.24C706.115 209.413 702.755 210 699.075 210H678.035V154.16ZM699.075 199.2C702.702 199.2 705.555 198.187 707.635 196.16C709.715 194.133 710.755 190.88 710.755 186.4V177.76C710.755 173.28 709.715 170.027 707.635 168C705.555 165.973 702.702 164.96 699.075 164.96H690.195V199.2H699.075Z" fill="#FFFC71"/>
<path d="M239.454 261V245.25H243.894V247.92H244.074C244.354 247.08 244.834 246.37 245.514 245.79C246.194 245.19 247.124 244.89 248.304 244.89C249.384 244.89 250.304 245.16 251.064 245.7C251.824 246.24 252.374 247.03 252.714 248.07H252.804C252.944 247.63 253.154 247.22 253.434 246.84C253.734 246.44 254.094 246.1 254.514 245.82C254.934 245.54 255.404 245.32 255.924 245.16C256.444 244.98 257.004 244.89 257.604 244.89C259.124 244.89 260.284 245.43 261.084 246.51C261.904 247.59 262.314 249.13 262.314 251.13V261H257.874V251.49C257.874 249.49 257.154 248.49 255.714 248.49C255.054 248.49 254.454 248.68 253.914 249.06C253.374 249.44 253.104 250.02 253.104 250.8V261H248.664V251.49C248.664 249.49 247.944 248.49 246.504 248.49C246.184 248.49 245.864 248.54 245.544 248.64C245.244 248.72 244.964 248.86 244.704 249.06C244.464 249.26 244.264 249.51 244.104 249.81C243.964 250.09 243.894 250.42 243.894 250.8V261H239.454ZM275.65 261.36C274.49 261.36 273.45 261.17 272.53 260.79C271.63 260.41 270.86 259.86 270.22 259.14C269.6 258.42 269.12 257.55 268.78 256.53C268.44 255.51 268.27 254.37 268.27 253.11C268.27 251.85 268.44 250.71 268.78 249.69C269.12 248.67 269.6 247.81 270.22 247.11C270.86 246.39 271.63 245.84 272.53 245.46C273.45 245.08 274.49 244.89 275.65 244.89C276.81 244.89 277.84 245.08 278.74 245.46C279.66 245.84 280.43 246.39 281.05 247.11C281.69 247.81 282.18 248.67 282.52 249.69C282.86 250.71 283.03 251.85 283.03 253.11C283.03 254.37 282.86 255.51 282.52 256.53C282.18 257.55 281.69 258.42 281.05 259.14C280.43 259.86 279.66 260.41 278.74 260.79C277.84 261.17 276.81 261.36 275.65 261.36ZM275.65 257.85C276.53 257.85 277.21 257.58 277.69 257.04C278.17 256.5 278.41 255.73 278.41 254.73V251.52C278.41 250.52 278.17 249.75 277.69 249.21C277.21 248.67 276.53 248.4 275.65 248.4C274.77 248.4 274.09 248.67 273.61 249.21C273.13 249.75 272.89 250.52 272.89 251.52V254.73C272.89 255.73 273.13 256.5 273.61 257.04C274.09 257.58 274.77 257.85 275.65 257.85ZM292.32 261L287.16 245.25H291.54L293.49 251.61L294.96 257.31H295.2L296.67 251.61L298.56 245.25H302.76L297.6 261H292.32ZM310.322 243.57C309.422 243.57 308.762 243.37 308.342 242.97C307.942 242.55 307.742 242.02 307.742 241.38V240.72C307.742 240.08 307.942 239.56 308.342 239.16C308.762 238.74 309.422 238.53 310.322 238.53C311.222 238.53 311.872 238.74 312.272 239.16C312.692 239.56 312.902 240.08 312.902 240.72V241.38C312.902 242.02 312.692 242.55 312.272 242.97C311.872 243.37 311.222 243.57 310.322 243.57ZM308.102 245.25H312.542V261H308.102V245.25ZM326.256 261.36C325.056 261.36 323.986 261.17 323.046 260.79C322.106 260.39 321.306 259.84 320.646 259.14C320.006 258.42 319.516 257.55 319.176 256.53C318.856 255.51 318.696 254.37 318.696 253.11C318.696 251.87 318.856 250.75 319.176 249.75C319.496 248.73 319.966 247.86 320.586 247.14C321.226 246.42 322.006 245.87 322.926 245.49C323.846 245.09 324.896 244.89 326.076 244.89C327.376 244.89 328.486 245.11 329.406 245.55C330.346 245.99 331.106 246.58 331.686 247.32C332.286 248.06 332.716 248.92 332.976 249.9C333.256 250.86 333.396 251.87 333.396 252.93V254.25H323.286V254.49C323.286 255.53 323.566 256.36 324.126 256.98C324.686 257.58 325.566 257.88 326.766 257.88C327.686 257.88 328.436 257.7 329.016 257.34C329.596 256.96 330.136 256.51 330.636 255.99L332.856 258.75C332.156 259.57 331.236 260.21 330.096 260.67C328.976 261.13 327.696 261.36 326.256 261.36ZM326.166 248.16C325.266 248.16 324.556 248.46 324.036 249.06C323.536 249.64 323.286 250.42 323.286 251.4V251.64H328.806V251.37C328.806 250.41 328.586 249.64 328.146 249.06C327.726 248.46 327.066 248.16 326.166 248.16ZM344.872 261.36C343.352 261.36 342.072 261.12 341.032 260.64C339.992 260.14 339.062 259.44 338.242 258.54L340.852 255.9C341.412 256.52 342.032 257.01 342.712 257.37C343.392 257.73 344.162 257.91 345.022 257.91C345.902 257.91 346.512 257.78 346.852 257.52C347.192 257.24 347.362 256.87 347.362 256.41C347.362 255.67 346.832 255.23 345.772 255.09L344.062 254.88C340.522 254.44 338.752 252.82 338.752 250.02C338.752 249.26 338.892 248.57 339.172 247.95C339.472 247.31 339.882 246.77 340.402 246.33C340.942 245.87 341.582 245.52 342.322 245.28C343.082 245.02 343.932 244.89 344.872 244.89C345.692 244.89 346.412 244.95 347.032 245.07C347.672 245.17 348.232 245.33 348.712 245.55C349.212 245.75 349.662 246.01 350.062 246.33C350.482 246.63 350.892 246.97 351.292 247.35L348.742 249.96C348.242 249.46 347.672 249.07 347.032 248.79C346.412 248.49 345.772 248.34 345.112 248.34C344.352 248.34 343.812 248.46 343.492 248.7C343.172 248.94 343.012 249.26 343.012 249.66C343.012 250.08 343.122 250.41 343.342 250.65C343.582 250.87 344.022 251.03 344.662 251.13L346.432 251.37C349.892 251.83 351.622 253.41 351.622 256.11C351.622 256.87 351.462 257.57 351.142 258.21C350.822 258.85 350.362 259.41 349.762 259.89C349.182 260.35 348.472 260.71 347.632 260.97C346.812 261.23 345.892 261.36 344.872 261.36ZM380.279 259.29C379.619 259.83 378.819 260.31 377.879 260.73C376.939 261.15 375.739 261.36 374.279 261.36C373.119 261.36 372.099 261.22 371.219 260.94C370.339 260.64 369.599 260.23 368.999 259.71C368.399 259.17 367.939 258.55 367.619 257.85C367.319 257.13 367.169 256.35 367.169 255.51C367.169 254.79 367.269 254.15 367.469 253.59C367.689 253.03 367.979 252.52 368.339 252.06C368.719 251.6 369.169 251.18 369.689 250.8C370.209 250.42 370.769 250.05 371.369 249.69C371.069 249.37 370.779 249.02 370.499 248.64C370.219 248.26 369.969 247.86 369.749 247.44C369.529 247.02 369.349 246.58 369.209 246.12C369.089 245.66 369.029 245.19 369.029 244.71C369.029 244.03 369.169 243.39 369.449 242.79C369.749 242.17 370.169 241.63 370.709 241.17C371.269 240.71 371.929 240.35 372.689 240.09C373.469 239.83 374.339 239.7 375.299 239.7C376.159 239.7 376.949 239.81 377.669 240.03C378.409 240.23 379.049 240.54 379.589 240.96C380.129 241.36 380.549 241.86 380.849 242.46C381.169 243.06 381.329 243.74 381.329 244.5C381.329 245.16 381.219 245.76 380.999 246.3C380.779 246.84 380.479 247.34 380.099 247.8C379.719 248.24 379.269 248.65 378.749 249.03C378.249 249.41 377.719 249.77 377.159 250.11L380.399 253.62C380.659 252.98 380.859 252.3 380.999 251.58C381.139 250.86 381.229 250.15 381.269 249.45H386.279V253.14H384.389C384.049 254.42 383.599 255.53 383.039 256.47L387.209 261H381.839L380.279 259.29ZM375.179 243.09C374.639 243.09 374.179 243.24 373.799 243.54C373.439 243.84 373.259 244.26 373.259 244.8V244.92C373.259 245.32 373.389 245.72 373.649 246.12C373.909 246.5 374.349 247.04 374.969 247.74C375.669 247.32 376.199 246.9 376.559 246.48C376.919 246.04 377.099 245.52 377.099 244.92V244.8C377.099 244.26 376.909 243.84 376.529 243.54C376.169 243.24 375.719 243.09 375.179 243.09ZM374.939 257.67C376.119 257.67 377.129 257.39 377.969 256.83L373.559 252.06C372.879 252.46 372.399 252.87 372.119 253.29C371.839 253.71 371.699 254.19 371.699 254.73V255.03C371.699 255.79 371.969 256.42 372.509 256.92C373.049 257.42 373.859 257.67 374.939 257.67ZM414.09 261C413.29 261 412.62 260.75 412.08 260.25C411.56 259.75 411.23 259.08 411.09 258.24H410.91C410.67 259.26 410.14 260.04 409.32 260.58C408.5 261.1 407.49 261.36 406.29 261.36C404.71 261.36 403.5 260.94 402.66 260.1C401.82 259.26 401.4 258.15 401.4 256.77C401.4 255.11 402 253.88 403.2 253.08C404.42 252.26 406.07 251.85 408.15 251.85H410.64V250.86C410.64 250.1 410.44 249.5 410.04 249.06C409.64 248.6 408.97 248.37 408.03 248.37C407.15 248.37 406.45 248.56 405.93 248.94C405.41 249.32 404.98 249.75 404.64 250.23L402 247.89C402.64 246.95 403.44 246.22 404.4 245.7C405.38 245.16 406.7 244.89 408.36 244.89C410.6 244.89 412.28 245.38 413.4 246.36C414.52 247.34 415.08 248.77 415.08 250.65V257.55H416.55V261H414.09ZM407.94 258.27C408.68 258.27 409.31 258.11 409.83 257.79C410.37 257.47 410.64 256.95 410.64 256.23V254.37H408.48C406.74 254.37 405.87 254.96 405.87 256.14V256.59C405.87 257.17 406.05 257.6 406.41 257.88C406.77 258.14 407.28 258.27 407.94 258.27ZM422.53 261V245.25H426.97V247.92H427.15C427.43 247.1 427.92 246.39 428.62 245.79C429.32 245.19 430.29 244.89 431.53 244.89C433.15 244.89 434.37 245.43 435.19 246.51C436.03 247.59 436.45 249.13 436.45 251.13V261H432.01V251.49C432.01 250.47 431.85 249.72 431.53 249.24C431.21 248.74 430.64 248.49 429.82 248.49C429.46 248.49 429.11 248.54 428.77 248.64C428.43 248.72 428.12 248.86 427.84 249.06C427.58 249.26 427.37 249.51 427.21 249.81C427.05 250.09 426.97 250.42 426.97 250.8V261H422.53ZM445.621 243.57C444.721 243.57 444.061 243.37 443.641 242.97C443.241 242.55 443.041 242.02 443.041 241.38V240.72C443.041 240.08 443.241 239.56 443.641 239.16C444.061 238.74 444.721 238.53 445.621 238.53C446.521 238.53 447.171 238.74 447.571 239.16C447.991 239.56 448.201 240.08 448.201 240.72V241.38C448.201 242.02 447.991 242.55 447.571 242.97C447.171 243.37 446.521 243.57 445.621 243.57ZM443.401 245.25H447.841V261H443.401V245.25ZM454.985 261V245.25H459.425V247.92H459.605C459.885 247.08 460.365 246.37 461.045 245.79C461.725 245.19 462.655 244.89 463.835 244.89C464.915 244.89 465.835 245.16 466.595 245.7C467.355 246.24 467.905 247.03 468.245 248.07H468.335C468.475 247.63 468.685 247.22 468.965 246.84C469.265 246.44 469.625 246.1 470.045 245.82C470.465 245.54 470.935 245.32 471.455 245.16C471.975 244.98 472.535 244.89 473.135 244.89C474.655 244.89 475.815 245.43 476.615 246.51C477.435 247.59 477.845 249.13 477.845 251.13V261H473.405V251.49C473.405 249.49 472.685 248.49 471.245 248.49C470.585 248.49 469.985 248.68 469.445 249.06C468.905 249.44 468.635 250.02 468.635 250.8V261H464.195V251.49C464.195 249.49 463.475 248.49 462.035 248.49C461.715 248.49 461.395 248.54 461.075 248.64C460.775 248.72 460.495 248.86 460.235 249.06C459.995 249.26 459.795 249.51 459.635 249.81C459.495 250.09 459.425 250.42 459.425 250.8V261H454.985ZM496.432 261C495.632 261 494.962 260.75 494.422 260.25C493.902 259.75 493.572 259.08 493.432 258.24H493.252C493.012 259.26 492.482 260.04 491.662 260.58C490.842 261.1 489.832 261.36 488.632 261.36C487.052 261.36 485.842 260.94 485.002 260.1C484.162 259.26 483.742 258.15 483.742 256.77C483.742 255.11 484.342 253.88 485.542 253.08C486.762 252.26 488.412 251.85 490.492 251.85H492.982V250.86C492.982 250.1 492.782 249.5 492.382 249.06C491.982 248.6 491.312 248.37 490.372 248.37C489.492 248.37 488.792 248.56 488.272 248.94C487.752 249.32 487.322 249.75 486.982 250.23L484.342 247.89C484.982 246.95 485.782 246.22 486.742 245.7C487.722 245.16 489.042 244.89 490.702 244.89C492.942 244.89 494.622 245.38 495.742 246.36C496.862 247.34 497.422 248.77 497.422 250.65V257.55H498.892V261H496.432ZM490.282 258.27C491.022 258.27 491.652 258.11 492.172 257.79C492.712 257.47 492.982 256.95 492.982 256.23V254.37H490.822C489.082 254.37 488.212 254.96 488.212 256.14V256.59C488.212 257.17 488.392 257.6 488.752 257.88C489.112 258.14 489.622 258.27 490.282 258.27ZM510.216 261C508.676 261 507.506 260.61 506.706 259.83C505.926 259.05 505.536 257.91 505.536 256.41V248.7H503.316V245.25H504.426C505.026 245.25 505.436 245.11 505.656 244.83C505.876 244.53 505.986 244.11 505.986 243.57V240.99H509.976V245.25H513.096V248.7H509.976V257.55H512.856V261H510.216ZM521.4 243.57C520.5 243.57 519.84 243.37 519.42 242.97C519.02 242.55 518.82 242.02 518.82 241.38V240.72C518.82 240.08 519.02 239.56 519.42 239.16C519.84 238.74 520.5 238.53 521.4 238.53C522.3 238.53 522.95 238.74 523.35 239.16C523.77 239.56 523.98 240.08 523.98 240.72V241.38C523.98 242.02 523.77 242.55 523.35 242.97C522.95 243.37 522.3 243.57 521.4 243.57ZM519.18 245.25H523.62V261H519.18V245.25ZM537.154 261.36C535.994 261.36 534.954 261.17 534.034 260.79C533.134 260.41 532.364 259.86 531.724 259.14C531.104 258.42 530.624 257.55 530.284 256.53C529.944 255.51 529.774 254.37 529.774 253.11C529.774 251.85 529.944 250.71 530.284 249.69C530.624 248.67 531.104 247.81 531.724 247.11C532.364 246.39 533.134 245.84 534.034 245.46C534.954 245.08 535.994 244.89 537.154 244.89C538.314 244.89 539.344 245.08 540.244 245.46C541.164 245.84 541.934 246.39 542.554 247.11C543.194 247.81 543.684 248.67 544.024 249.69C544.364 250.71 544.534 251.85 544.534 253.11C544.534 254.37 544.364 255.51 544.024 256.53C543.684 257.55 543.194 258.42 542.554 259.14C541.934 259.86 541.164 260.41 540.244 260.79C539.344 261.17 538.314 261.36 537.154 261.36ZM537.154 257.85C538.034 257.85 538.714 257.58 539.194 257.04C539.674 256.5 539.914 255.73 539.914 254.73V251.52C539.914 250.52 539.674 249.75 539.194 249.21C538.714 248.67 538.034 248.4 537.154 248.4C536.274 248.4 535.594 248.67 535.114 249.21C534.634 249.75 534.394 250.52 534.394 251.52V254.73C534.394 255.73 534.634 256.5 535.114 257.04C535.594 257.58 536.274 257.85 537.154 257.85ZM550.698 261V245.25H555.138V247.92H555.318C555.598 247.1 556.088 246.39 556.788 245.79C557.488 245.19 558.458 244.89 559.698 244.89C561.318 244.89 562.538 245.43 563.358 246.51C564.198 247.59 564.618 249.13 564.618 251.13V261H560.178V251.49C560.178 250.47 560.018 249.72 559.698 249.24C559.378 248.74 558.808 248.49 557.988 248.49C557.628 248.49 557.278 248.54 556.938 248.64C556.598 248.72 556.288 248.86 556.008 249.06C555.748 249.26 555.538 249.51 555.378 249.81C555.218 250.09 555.138 250.42 555.138 250.8V261H550.698ZM576.909 261.36C575.389 261.36 574.109 261.12 573.069 260.64C572.029 260.14 571.099 259.44 570.279 258.54L572.889 255.9C573.449 256.52 574.069 257.01 574.749 257.37C575.429 257.73 576.199 257.91 577.059 257.91C577.939 257.91 578.549 257.78 578.889 257.52C579.229 257.24 579.399 256.87 579.399 256.41C579.399 255.67 578.869 255.23 577.809 255.09L576.099 254.88C572.559 254.44 570.789 252.82 570.789 250.02C570.789 249.26 570.929 248.57 571.209 247.95C571.509 247.31 571.919 246.77 572.439 246.33C572.979 245.87 573.619 245.52 574.359 245.28C575.119 245.02 575.969 244.89 576.909 244.89C577.729 244.89 578.449 244.95 579.069 245.07C579.709 245.17 580.269 245.33 580.749 245.55C581.249 245.75 581.699 246.01 582.099 246.33C582.519 246.63 582.929 246.97 583.329 247.35L580.779 249.96C580.279 249.46 579.709 249.07 579.069 248.79C578.449 248.49 577.809 248.34 577.149 248.34C576.389 248.34 575.849 248.46 575.529 248.7C575.209 248.94 575.049 249.26 575.049 249.66C575.049 250.08 575.159 250.41 575.379 250.65C575.619 250.87 576.059 251.03 576.699 251.13L578.469 251.37C581.929 251.83 583.659 253.41 583.659 256.11C583.659 256.87 583.499 257.57 583.179 258.21C582.859 258.85 582.399 259.41 581.799 259.89C581.219 260.35 580.509 260.71 579.669 260.97C578.849 261.23 577.929 261.36 576.909 261.36Z" fill="white"/>
<path d="M824 151C824 171.45 812.681 191.06 791.929 209.02C771.18 226.977 741.098 243.195 703.838 256.834C629.326 284.11 526.323 301 412.5 301C298.677 301 195.674 284.11 121.162 256.834C83.9024 243.195 53.8198 226.977 33.0707 209.02C12.3189 191.06 1 171.45 1 151C1 130.55 12.3189 110.94 33.0707 92.9801C53.8198 75.0225 83.9024 58.8053 121.162 45.1659C195.674 17.8902 298.677 1 412.5 1C526.323 1 629.326 17.8902 703.838 45.1659C741.098 58.8053 771.18 75.0225 791.929 92.9801C812.681 110.94 824 130.55 824 151Z" stroke="white" stroke-width="2"/>
<path d="M89.1162 32.4549L87.3871 29.7815L87.2771 32.9634L86.7851 47.206L73.4874 50.8833L70.6009 51.6815L73.3879 52.7777L86.4156 57.9018L85.9226 72.1716L85.8152 75.2812L87.7142 72.8165L96.2309 61.7625L109.217 66.8702L112.112 68.0091L110.423 65.3965L102.668 53.4074L111.212 42.318L113.04 39.9456L110.154 40.7438L96.8558 44.4211L89.1162 32.4549Z" fill="white" fill-opacity="0.2"/>
<path d="M89.1162 32.4549L87.3871 29.7815L87.2771 32.9634L86.7851 47.206L73.4874 50.8833L70.6009 51.6815L73.3879 52.7777L86.4156 57.9018L85.9226 72.1716L85.8152 75.2812L87.7142 72.8165L96.2309 61.7625L109.217 66.8702L112.112 68.0091L110.423 65.3965L102.668 53.4074L111.212 42.318L113.04 39.9456L110.154 40.7438L96.8558 44.4211L89.1162 32.4549Z" fill="#FFFC71"/>
<path d="M89.1162 32.4549L87.3871 29.7815L87.2771 32.9634L86.7851 47.206L73.4874 50.8833L70.6009 51.6815L73.3879 52.7777L86.4156 57.9018L85.9226 72.1716L85.8152 75.2812L87.7142 72.8165L96.2309 61.7625L109.217 66.8702L112.112 68.0091L110.423 65.3965L102.668 53.4074L111.212 42.318L113.04 39.9456L110.154 40.7438L96.8558 44.4211L89.1162 32.4549Z" stroke="black" stroke-width="2"/>
<path d="M773.346 203.906L772.611 200.808L771.443 203.77L766.214 217.027L752.453 216.044L749.465 215.83L751.725 217.796L762.288 226.983L757.049 240.266L755.908 243.16L758.522 241.473L770.246 233.905L780.775 243.063L783.123 245.105L782.404 242.077L779.107 228.185L790.869 220.593L793.385 218.969L790.398 218.755L776.636 217.772L773.346 203.906Z" fill="white" fill-opacity="0.2"/>
<path d="M773.346 203.906L772.611 200.808L771.443 203.77L766.214 217.027L752.453 216.044L749.465 215.83L751.725 217.796L762.288 226.983L757.049 240.266L755.908 243.16L758.522 241.473L770.246 233.905L780.775 243.063L783.123 245.105L782.404 242.077L779.107 228.185L790.869 220.593L793.385 218.969L790.398 218.755L776.636 217.772L773.346 203.906Z" fill="#FFFC71"/>
<path d="M773.346 203.906L772.611 200.808L771.443 203.77L766.214 217.027L752.453 216.044L749.465 215.83L751.725 217.796L762.288 226.983L757.049 240.266L755.908 243.16L758.522 241.473L770.246 233.905L780.775 243.063L783.123 245.105L782.404 242.077L779.107 228.185L790.869 220.593L793.385 218.969L790.398 218.755L776.636 217.772L773.346 203.906Z" stroke="black" stroke-width="2"/>
<circle cx="353" cy="301" r="16" fill="#FFFC71" stroke="black" stroke-width="2"/>
<path d="M358.024 307H348.144V304.26L352.444 300.58C352.831 300.247 353.157 299.947 353.424 299.68C353.691 299.4 353.904 299.133 354.064 298.88C354.237 298.613 354.357 298.353 354.424 298.1C354.504 297.847 354.544 297.573 354.544 297.28V297C354.544 296.733 354.491 296.5 354.384 296.3C354.277 296.1 354.137 295.933 353.964 295.8C353.791 295.667 353.591 295.567 353.364 295.5C353.151 295.433 352.931 295.4 352.704 295.4C352.371 295.4 352.077 295.453 351.824 295.56C351.584 295.667 351.371 295.813 351.184 296C351.011 296.173 350.864 296.38 350.744 296.62C350.624 296.847 350.531 297.093 350.464 297.36L347.844 296.36C348.004 295.88 348.224 295.427 348.504 295C348.784 294.56 349.131 294.18 349.544 293.86C349.971 293.527 350.471 293.267 351.044 293.08C351.617 292.893 352.264 292.8 352.984 292.8C353.744 292.8 354.417 292.907 355.004 293.12C355.591 293.333 356.084 293.627 356.484 294C356.897 294.373 357.211 294.82 357.424 295.34C357.637 295.847 357.744 296.4 357.744 297C357.744 297.6 357.644 298.147 357.444 298.64C357.244 299.133 356.971 299.6 356.624 300.04C356.291 300.467 355.897 300.873 355.444 301.26C354.991 301.647 354.517 302.04 354.024 302.44L351.424 304.48H358.024V307Z" fill="black"/>
<path d="M358.024 307V307.5H358.524V307H358.024ZM348.144 307H347.644V307.5H348.144V307ZM348.144 304.26L347.819 303.88L347.644 304.03V304.26H348.144ZM352.444 300.58L352.769 300.96L352.77 300.959L352.444 300.58ZM353.424 299.68L353.778 300.034L353.786 300.025L353.424 299.68ZM354.064 298.88L353.645 298.607L353.641 298.613L354.064 298.88ZM354.424 298.1L353.947 297.949L353.943 297.961L353.94 297.973L354.424 298.1ZM353.964 295.8L353.659 296.196L353.659 296.196L353.964 295.8ZM353.364 295.5L353.215 295.977L353.223 295.98L353.364 295.5ZM351.824 295.56L351.63 295.099L351.621 295.103L351.824 295.56ZM351.184 296L350.83 295.646L350.83 295.646L351.184 296ZM350.744 296.62L351.186 296.854L351.191 296.844L350.744 296.62ZM350.464 297.36L350.286 297.827L350.812 298.028L350.949 297.481L350.464 297.36ZM347.844 296.36L347.37 296.202L347.218 296.656L347.666 296.827L347.844 296.36ZM348.504 295L348.922 295.274L348.926 295.268L348.504 295ZM349.544 293.86L349.85 294.255L349.852 294.254L349.544 293.86ZM355.004 293.12L354.833 293.59L354.833 293.59L355.004 293.12ZM356.484 294L356.143 294.366L356.149 294.371L356.484 294ZM357.424 295.34L356.961 295.53L356.963 295.534L357.424 295.34ZM356.624 300.04L356.231 299.731L356.23 299.732L356.624 300.04ZM355.444 301.26L355.768 301.64L355.768 301.64L355.444 301.26ZM354.024 302.44L354.333 302.833L354.339 302.828L354.024 302.44ZM351.424 304.48L351.115 304.087L349.977 304.98H351.424V304.48ZM358.024 304.48H358.524V303.98H358.024V304.48ZM358.024 306.5H348.144V307.5H358.024V306.5ZM348.644 307V304.26H347.644V307H348.644ZM348.469 304.64L352.769 300.96L352.119 300.2L347.819 303.88L348.469 304.64ZM352.77 300.959C353.163 300.62 353.5 300.311 353.777 300.034L353.07 299.326C352.815 299.582 352.498 299.873 352.117 300.201L352.77 300.959ZM353.786 300.025C354.069 299.727 354.305 299.435 354.487 299.147L353.641 298.613C353.503 298.832 353.312 299.073 353.062 299.335L353.786 300.025ZM354.483 299.152C354.68 298.85 354.825 298.542 354.907 298.227L353.94 297.973C353.89 298.165 353.795 298.376 353.645 298.608L354.483 299.152ZM354.901 298.251C354.998 297.944 355.044 297.619 355.044 297.28H354.044C354.044 297.528 354.01 297.75 353.947 297.949L354.901 298.251ZM355.044 297.28V297H354.044V297.28H355.044ZM355.044 297C355.044 296.666 354.977 296.349 354.825 296.065L353.943 296.535C354.004 296.651 354.044 296.801 354.044 297H355.044ZM354.825 296.065C354.686 295.804 354.501 295.582 354.269 295.404L353.659 296.196C353.774 296.285 353.868 296.396 353.943 296.535L354.825 296.065ZM354.269 295.404C354.043 295.23 353.786 295.103 353.505 295.02L353.223 295.98C353.395 296.03 353.538 296.104 353.659 296.196L354.269 295.404ZM353.513 295.023C353.251 294.941 352.98 294.9 352.704 294.9V295.9C352.881 295.9 353.05 295.926 353.215 295.977L353.513 295.023ZM352.704 294.9C352.318 294.9 351.956 294.962 351.63 295.099L352.018 296.021C352.198 295.945 352.423 295.9 352.704 295.9V294.9ZM351.621 295.103C351.324 295.235 351.06 295.417 350.83 295.646L351.537 296.354C351.681 296.21 351.843 296.099 352.027 296.017L351.621 295.103ZM350.83 295.646C350.616 295.861 350.438 296.113 350.297 296.396L351.191 296.844C351.289 296.647 351.406 296.485 351.537 296.354L350.83 295.646ZM350.302 296.386C350.162 296.651 350.055 296.936 349.979 297.239L350.949 297.481C351.007 297.251 351.086 297.042 351.186 296.854L350.302 296.386ZM350.642 296.893L348.022 295.893L347.666 296.827L350.286 297.827L350.642 296.893ZM348.318 296.518C348.464 296.079 348.665 295.665 348.922 295.274L348.086 294.726C347.782 295.188 347.543 295.681 347.37 296.202L348.318 296.518ZM348.926 295.268C349.175 294.877 349.482 294.54 349.85 294.255L349.238 293.465C348.779 293.82 348.393 294.243 348.082 294.732L348.926 295.268ZM349.852 294.254C350.228 293.96 350.674 293.726 351.199 293.555L350.889 292.605C350.267 292.807 349.714 293.093 349.236 293.466L349.852 294.254ZM351.199 293.555C351.713 293.388 352.307 293.3 352.984 293.3V292.3C352.221 292.3 351.521 292.399 350.889 292.605L351.199 293.555ZM352.984 293.3C353.698 293.3 354.312 293.4 354.833 293.59L355.175 292.65C354.523 292.413 353.79 292.3 352.984 292.3V293.3ZM354.833 293.59C355.365 293.783 355.798 294.044 356.143 294.366L356.825 293.634C356.369 293.209 355.816 292.883 355.175 292.65L354.833 293.59ZM356.149 294.371C356.506 294.694 356.776 295.078 356.961 295.53L357.886 295.15C357.645 294.562 357.288 294.053 356.819 293.629L356.149 294.371ZM356.963 295.534C357.148 295.974 357.244 296.461 357.244 297H358.244C358.244 296.339 358.126 295.719 357.885 295.146L356.963 295.534ZM357.244 297C357.244 297.544 357.153 298.026 356.981 298.452L357.907 298.828C358.134 298.268 358.244 297.656 358.244 297H357.244ZM356.981 298.452C356.799 298.9 356.55 299.326 356.231 299.731L357.017 300.349C357.391 299.874 357.689 299.367 357.907 298.828L356.981 298.452ZM356.23 299.732C355.919 300.13 355.55 300.513 355.119 300.88L355.768 301.64C356.245 301.234 356.662 300.803 357.018 300.348L356.23 299.732ZM355.119 300.88C354.669 301.263 354.199 301.654 353.709 302.052L354.339 302.828C354.835 302.426 355.312 302.03 355.768 301.64L355.119 300.88ZM353.715 302.047L351.115 304.087L351.733 304.873L354.333 302.833L353.715 302.047ZM351.424 304.98H358.024V303.98H351.424V304.98ZM357.524 304.48V307H358.524V304.48H357.524Z" fill="black"/>
<circle cx="393" cy="301" r="16" fill="#FFFC71" stroke="black" stroke-width="2"/>
<path d="M393.004 307.24C391.177 307.24 389.824 306.607 388.944 305.34C388.064 304.073 387.624 302.3 387.624 300.02C387.624 297.74 388.064 295.967 388.944 294.7C389.824 293.433 391.177 292.8 393.004 292.8C394.831 292.8 396.184 293.433 397.064 294.7C397.944 295.967 398.384 297.74 398.384 300.02C398.384 302.3 397.944 304.073 397.064 305.34C396.184 306.607 394.831 307.24 393.004 307.24ZM393.004 304.7C393.804 304.7 394.357 304.407 394.664 303.82C394.971 303.233 395.124 302.407 395.124 301.34V298.7C395.124 297.633 394.971 296.807 394.664 296.22C394.357 295.633 393.804 295.34 393.004 295.34C392.204 295.34 391.651 295.633 391.344 296.22C391.037 296.807 390.884 297.633 390.884 298.7V301.34C390.884 302.407 391.037 303.233 391.344 303.82C391.651 304.407 392.204 304.7 393.004 304.7Z" fill="black"/>
<path d="M388.944 305.34L389.355 305.055L389.355 305.055L388.944 305.34ZM388.944 294.7L389.355 294.985L389.355 294.985L388.944 294.7ZM397.064 294.7L396.653 294.985L396.653 294.985L397.064 294.7ZM397.064 305.34L397.475 305.625L397.475 305.625L397.064 305.34ZM394.664 303.82L394.221 303.588L394.221 303.588L394.664 303.82ZM394.664 296.22L395.107 295.988L395.107 295.988L394.664 296.22ZM391.344 296.22L390.901 295.988L390.901 295.988L391.344 296.22ZM391.344 303.82L391.787 303.588L391.787 303.588L391.344 303.82ZM393.004 306.74C391.306 306.74 390.123 306.161 389.355 305.055L388.533 305.625C389.525 307.053 391.048 307.74 393.004 307.74V306.74ZM389.355 305.055C388.554 303.903 388.124 302.244 388.124 300.02H387.124C387.124 302.356 387.573 304.244 388.533 305.625L389.355 305.055ZM388.124 300.02C388.124 297.796 388.554 296.137 389.355 294.985L388.533 294.415C387.573 295.796 387.124 297.684 387.124 300.02H388.124ZM389.355 294.985C390.123 293.879 391.306 293.3 393.004 293.3V292.3C391.048 292.3 389.525 292.987 388.533 294.415L389.355 294.985ZM393.004 293.3C394.701 293.3 395.885 293.879 396.653 294.985L397.475 294.415C396.483 292.987 394.96 292.3 393.004 292.3V293.3ZM396.653 294.985C397.453 296.137 397.884 297.796 397.884 300.02H398.884C398.884 297.684 398.434 295.796 397.475 294.415L396.653 294.985ZM397.884 300.02C397.884 302.244 397.453 303.903 396.653 305.055L397.475 305.625C398.434 304.244 398.884 302.356 398.884 300.02H397.884ZM396.653 305.055C395.885 306.161 394.701 306.74 393.004 306.74V307.74C394.96 307.74 396.483 307.053 397.475 305.625L396.653 305.055ZM393.004 305.2C393.943 305.2 394.694 304.841 395.107 304.052L394.221 303.588C394.02 303.973 393.664 304.2 393.004 304.2V305.2ZM395.107 304.052C395.467 303.363 395.624 302.443 395.624 301.34H394.624C394.624 302.37 394.474 303.104 394.221 303.588L395.107 304.052ZM395.624 301.34V298.7H394.624V301.34H395.624ZM395.624 298.7C395.624 297.597 395.467 296.677 395.107 295.988L394.221 296.452C394.474 296.936 394.624 297.67 394.624 298.7H395.624ZM395.107 295.988C394.694 295.199 393.943 294.84 393.004 294.84V295.84C393.664 295.84 394.02 296.067 394.221 296.452L395.107 295.988ZM393.004 294.84C392.064 294.84 391.313 295.199 390.901 295.988L391.787 296.452C391.988 296.067 392.343 295.84 393.004 295.84V294.84ZM390.901 295.988C390.541 296.677 390.384 297.597 390.384 298.7H391.384C391.384 297.67 391.534 296.936 391.787 296.452L390.901 295.988ZM390.384 298.7V301.34H391.384V298.7H390.384ZM390.384 301.34C390.384 302.443 390.541 303.363 390.901 304.052L391.787 303.588C391.534 303.104 391.384 302.37 391.384 301.34H390.384ZM390.901 304.052C391.313 304.841 392.064 305.2 393.004 305.2V304.2C392.343 304.2 391.988 303.973 391.787 303.588L390.901 304.052Z" fill="black"/>
<circle cx="433" cy="301" r="16" fill="#FFFC71" stroke="black" stroke-width="2"/>
<path d="M438.024 307H428.144V304.26L432.444 300.58C432.831 300.247 433.157 299.947 433.424 299.68C433.691 299.4 433.904 299.133 434.064 298.88C434.237 298.613 434.357 298.353 434.424 298.1C434.504 297.847 434.544 297.573 434.544 297.28V297C434.544 296.733 434.491 296.5 434.384 296.3C434.277 296.1 434.137 295.933 433.964 295.8C433.791 295.667 433.591 295.567 433.364 295.5C433.151 295.433 432.931 295.4 432.704 295.4C432.371 295.4 432.077 295.453 431.824 295.56C431.584 295.667 431.371 295.813 431.184 296C431.011 296.173 430.864 296.38 430.744 296.62C430.624 296.847 430.531 297.093 430.464 297.36L427.844 296.36C428.004 295.88 428.224 295.427 428.504 295C428.784 294.56 429.131 294.18 429.544 293.86C429.971 293.527 430.471 293.267 431.044 293.08C431.617 292.893 432.264 292.8 432.984 292.8C433.744 292.8 434.417 292.907 435.004 293.12C435.591 293.333 436.084 293.627 436.484 294C436.897 294.373 437.211 294.82 437.424 295.34C437.637 295.847 437.744 296.4 437.744 297C437.744 297.6 437.644 298.147 437.444 298.64C437.244 299.133 436.971 299.6 436.624 300.04C436.291 300.467 435.897 300.873 435.444 301.26C434.991 301.647 434.517 302.04 434.024 302.44L431.424 304.48H438.024V307Z" fill="black"/>
<path d="M438.024 307V307.5H438.524V307H438.024ZM428.144 307H427.644V307.5H428.144V307ZM428.144 304.26L427.819 303.88L427.644 304.03V304.26H428.144ZM432.444 300.58L432.769 300.96L432.77 300.959L432.444 300.58ZM433.424 299.68L433.778 300.034L433.786 300.025L433.424 299.68ZM434.064 298.88L433.645 298.607L433.641 298.613L434.064 298.88ZM434.424 298.1L433.947 297.949L433.943 297.961L433.94 297.973L434.424 298.1ZM433.964 295.8L433.659 296.196L433.659 296.196L433.964 295.8ZM433.364 295.5L433.215 295.977L433.223 295.98L433.364 295.5ZM431.824 295.56L431.63 295.099L431.621 295.103L431.824 295.56ZM431.184 296L430.83 295.646L430.83 295.646L431.184 296ZM430.744 296.62L431.186 296.854L431.191 296.844L430.744 296.62ZM430.464 297.36L430.286 297.827L430.812 298.028L430.949 297.481L430.464 297.36ZM427.844 296.36L427.37 296.202L427.218 296.656L427.666 296.827L427.844 296.36ZM428.504 295L428.922 295.274L428.926 295.268L428.504 295ZM429.544 293.86L429.85 294.255L429.852 294.254L429.544 293.86ZM435.004 293.12L434.833 293.59L434.833 293.59L435.004 293.12ZM436.484 294L436.143 294.366L436.149 294.371L436.484 294ZM437.424 295.34L436.961 295.53L436.963 295.534L437.424 295.34ZM436.624 300.04L436.231 299.731L436.23 299.732L436.624 300.04ZM435.444 301.26L435.768 301.64L435.768 301.64L435.444 301.26ZM434.024 302.44L434.333 302.833L434.339 302.828L434.024 302.44ZM431.424 304.48L431.115 304.087L429.977 304.98H431.424V304.48ZM438.024 304.48H438.524V303.98H438.024V304.48ZM438.024 306.5H428.144V307.5H438.024V306.5ZM428.644 307V304.26H427.644V307H428.644ZM428.469 304.64L432.769 300.96L432.119 300.2L427.819 303.88L428.469 304.64ZM432.77 300.959C433.163 300.62 433.5 300.311 433.777 300.034L433.07 299.326C432.815 299.582 432.498 299.873 432.117 300.201L432.77 300.959ZM433.786 300.025C434.069 299.727 434.305 299.435 434.487 299.147L433.641 298.613C433.503 298.832 433.312 299.073 433.062 299.335L433.786 300.025ZM434.483 299.152C434.68 298.85 434.825 298.542 434.907 298.227L433.94 297.973C433.89 298.165 433.795 298.376 433.645 298.608L434.483 299.152ZM434.901 298.251C434.998 297.944 435.044 297.619 435.044 297.28H434.044C434.044 297.528 434.01 297.75 433.947 297.949L434.901 298.251ZM435.044 297.28V297H434.044V297.28H435.044ZM435.044 297C435.044 296.666 434.977 296.349 434.825 296.065L433.943 296.535C434.004 296.651 434.044 296.801 434.044 297H435.044ZM434.825 296.065C434.686 295.804 434.501 295.582 434.269 295.404L433.659 296.196C433.774 296.285 433.868 296.396 433.943 296.535L434.825 296.065ZM434.269 295.404C434.043 295.23 433.786 295.103 433.505 295.02L433.223 295.98C433.395 296.03 433.538 296.104 433.659 296.196L434.269 295.404ZM433.513 295.023C433.251 294.941 432.98 294.9 432.704 294.9V295.9C432.881 295.9 433.05 295.926 433.215 295.977L433.513 295.023ZM432.704 294.9C432.318 294.9 431.956 294.962 431.63 295.099L432.018 296.021C432.198 295.945 432.423 295.9 432.704 295.9V294.9ZM431.621 295.103C431.324 295.235 431.06 295.417 430.83 295.646L431.537 296.354C431.681 296.21 431.843 296.099 432.027 296.017L431.621 295.103ZM430.83 295.646C430.616 295.861 430.438 296.113 430.297 296.396L431.191 296.844C431.289 296.647 431.406 296.485 431.537 296.354L430.83 295.646ZM430.302 296.386C430.162 296.651 430.055 296.936 429.979 297.239L430.949 297.481C431.007 297.251 431.086 297.042 431.186 296.854L430.302 296.386ZM430.642 296.893L428.022 295.893L427.666 296.827L430.286 297.827L430.642 296.893ZM428.318 296.518C428.464 296.079 428.665 295.665 428.922 295.274L428.086 294.726C427.782 295.188 427.543 295.681 427.37 296.202L428.318 296.518ZM428.926 295.268C429.175 294.877 429.482 294.54 429.85 294.255L429.238 293.465C428.779 293.82 428.393 294.243 428.082 294.732L428.926 295.268ZM429.852 294.254C430.228 293.96 430.674 293.726 431.199 293.555L430.889 292.605C430.267 292.807 429.714 293.093 429.236 293.466L429.852 294.254ZM431.199 293.555C431.713 293.388 432.307 293.3 432.984 293.3V292.3C432.221 292.3 431.521 292.399 430.889 292.605L431.199 293.555ZM432.984 293.3C433.698 293.3 434.312 293.4 434.833 293.59L435.175 292.65C434.523 292.413 433.79 292.3 432.984 292.3V293.3ZM434.833 293.59C435.365 293.783 435.798 294.044 436.143 294.366L436.825 293.634C436.369 293.209 435.816 292.883 435.175 292.65L434.833 293.59ZM436.149 294.371C436.506 294.694 436.776 295.078 436.961 295.53L437.886 295.15C437.645 294.562 437.288 294.053 436.819 293.629L436.149 294.371ZM436.963 295.534C437.148 295.974 437.244 296.461 437.244 297H438.244C438.244 296.339 438.126 295.719 437.885 295.146L436.963 295.534ZM437.244 297C437.244 297.544 437.153 298.026 436.981 298.452L437.907 298.828C438.134 298.268 438.244 297.656 438.244 297H437.244ZM436.981 298.452C436.799 298.9 436.55 299.326 436.231 299.731L437.017 300.349C437.391 299.874 437.689 299.367 437.907 298.828L436.981 298.452ZM436.23 299.732C435.919 300.13 435.55 300.513 435.119 300.88L435.768 301.64C436.245 301.234 436.662 300.803 437.018 300.348L436.23 299.732ZM435.119 300.88C434.669 301.263 434.199 301.654 433.709 302.052L434.339 302.828C434.835 302.426 435.312 302.03 435.768 301.64L435.119 300.88ZM433.715 302.047L431.115 304.087L431.733 304.873L434.333 302.833L433.715 302.047ZM431.424 304.98H438.024V303.98H431.424V304.98ZM437.524 304.48V307H438.524V304.48H437.524Z" fill="black"/>
<circle cx="473" cy="301" r="16" fill="#FFFC71" stroke="black" stroke-width="2"/>
<path d="M473.744 307V304.32H467.604V301.76L473.044 293.04H476.604V302H478.364V304.32H476.604V307H473.744ZM470.004 302H473.744V296.14H473.544L470.004 302Z" fill="black"/>
<path d="M473.744 307H473.244V307.5H473.744V307ZM473.744 304.32H474.244V303.82H473.744V304.32ZM467.604 304.32H467.104V304.82H467.604V304.32ZM467.604 301.76L467.18 301.495L467.104 301.617V301.76H467.604ZM473.044 293.04V292.54H472.767L472.62 292.775L473.044 293.04ZM476.604 293.04H477.104V292.54H476.604V293.04ZM476.604 302H476.104V302.5H476.604V302ZM478.364 302H478.864V301.5H478.364V302ZM478.364 304.32V304.82H478.864V304.32H478.364ZM476.604 304.32V303.82H476.104V304.32H476.604ZM476.604 307V307.5H477.104V307H476.604ZM470.004 302L469.576 301.741L469.118 302.5H470.004V302ZM473.744 302V302.5H474.244V302H473.744ZM473.744 296.14H474.244V295.64H473.744V296.14ZM473.544 296.14V295.64H473.262L473.116 295.881L473.544 296.14ZM474.244 307V304.32H473.244V307H474.244ZM473.744 303.82H467.604V304.82H473.744V303.82ZM468.104 304.32V301.76H467.104V304.32H468.104ZM468.028 302.025L473.468 293.305L472.62 292.775L467.18 301.495L468.028 302.025ZM473.044 293.54H476.604V292.54H473.044V293.54ZM476.104 293.04V302H477.104V293.04H476.104ZM476.604 302.5H478.364V301.5H476.604V302.5ZM477.864 302V304.32H478.864V302H477.864ZM478.364 303.82H476.604V304.82H478.364V303.82ZM476.104 304.32V307H477.104V304.32H476.104ZM476.604 306.5H473.744V307.5H476.604V306.5ZM470.004 302.5H473.744V301.5H470.004V302.5ZM474.244 302V296.14H473.244V302H474.244ZM473.744 295.64H473.544V296.64H473.744V295.64ZM473.116 295.881L469.576 301.741L470.432 302.259L473.972 296.399L473.116 295.881Z" fill="black"/>
</svg>
